<svg xmlns="http://www.w3.org/2000/svg" width="1200" height="620" viewBox="0 0 1200 620">
  <rect width="1200" height="620" fill="#ffffff"/>
  <text x="70" y="58" font-family="Arial,sans-serif" font-size="32" font-weight="700" fill="#172033">Observed horizon slopes meet or exceed the claimed decay</text>
  <text x="70" y="92" font-family="Arial,sans-serif" font-size="18" fill="#64748b">More negative is faster. Lines span observed point estimates across dimensions and nodes.</text>
  <g font-family="Arial,sans-serif" font-size="18" fill="#334155">
    <text x="70" y="178">Claim 1</text><text x="70" y="288">Claim 2</text><text x="70" y="398">Claim 3</text><text x="70" y="508">Claim 4</text>
  </g>
  <g stroke="#cbd5e1" stroke-width="1">
    <line x1="290" y1="125" x2="1090" y2="125"/><line x1="290" y1="565" x2="1090" y2="565"/>
    <line x1="290" y1="125" x2="290" y2="565"/><line x1="490" y1="125" x2="490" y2="565"/><line x1="690" y1="125" x2="690" y2="565"/><line x1="890" y1="125" x2="890" y2="565"/><line x1="1090" y1="125" x2="1090" y2="565"/>
  </g>
  <g font-family="Arial,sans-serif" font-size="15" fill="#64748b" text-anchor="middle">
    <text x="290" y="590">−0.50</text><text x="490" y="590">−0.40</text><text x="690" y="590">−0.30</text><text x="890" y="590">−0.20</text><text x="1090" y="590">−0.10</text>
  </g>
  <g stroke="#2563eb" stroke-width="16" stroke-linecap="round">
    <line x1="714" y1="172" x2="724" y2="172"/>
    <line x1="518" y1="282" x2="533" y2="282"/>
    <line x1="760" y1="392" x2="783" y2="392"/>
    <line x1="376" y1="502" x2="550" y2="502"/>
  </g>
  <g fill="#0f172a" font-family="Arial,sans-serif" font-size="16">
    <text x="742" y="178">observed −0.288…−0.283</text>
    <text x="551" y="288">observed −0.386…−0.379</text>
    <text x="801" y="398">observed −0.265…−0.254</text>
    <text x="568" y="508">observed −0.457…−0.370</text>
  </g>
  <g stroke="#ef4444" stroke-width="3" stroke-dasharray="7 5">
    <line x1="790" y1="142" x2="790" y2="202"/><line x1="623" y1="252" x2="623" y2="312"/>
    <line x1="790" y1="362" x2="790" y2="422"/><line x1="623" y1="472" x2="623" y2="532"/>
  </g>
  <g fill="#b91c1c" font-family="Arial,sans-serif" font-size="15">
    <text x="798" y="151">paper −1/4</text><text x="631" y="261">paper −1/3</text>
    <text x="798" y="371">paper −1/4</text><text x="631" y="481">paper −1/3</text>
  </g>
</svg>
